<?xml version="1.0" encoding="utf-8"?>
<!-- Generator: Adobe Illustrator 16.0.0, SVG Export Plug-In . SVG Version: 6.00 Build 0)  -->
<!DOCTYPE svg PUBLIC "-//W3C//DTD SVG 1.1//EN" "http://www.w3.org/Graphics/SVG/1.1/DTD/svg11.dtd">
<svg version="1.1" xmlns="http://www.w3.org/2000/svg" xmlns:xlink="http://www.w3.org/1999/xlink" x="0px" y="0px" width="256px"
	 height="256px" viewBox="0 0 256 256" enable-background="new 0 0 256 256" xml:space="preserve">

<style>

	#bg{
	fill: #FFFFFF;
	}

	#bg:hover{
		fill: #ffa500;
	}

</style>

<defs>
    <mask id="mask">
		<circle fill="#FFFFFF" cx="128" cy="128" r="124.332"/>
        <path fill="#000000" d="M96.183,52.25h63.634c24.241,0,43.933,19.692,43.933,43.933v63.634c0,24.264-19.669,43.933-43.933,43.933H96.183
		c-24.241,0-43.933-19.691-43.933-43.933V96.183C52.25,71.919,71.919,52.25,96.183,52.25 M94.667,67.4
		C79.605,67.4,67.4,79.605,67.4,94.667l0,0v66.667c0,15.076,12.19,27.268,27.267,27.268h66.667
		c15.062,0,27.268-12.206,27.268-27.268l0,0V94.667c0-15.076-12.191-27.267-27.268-27.267H94.667 M167.769,78.763
		c5.23,0,9.469,4.238,9.469,9.469c0,5.229-4.238,9.469-9.469,9.469c-5.229,0-9.469-4.24-9.469-9.469
		C158.3,83.001,162.539,78.763,167.769,78.763 M128,90.125c20.92,0,37.875,16.955,37.875,37.875
		c0,20.92-16.955,37.875-37.875,37.875c-20.92,0-37.875-16.955-37.875-37.875C90.125,107.08,107.08,90.125,128,90.125 M128,105.275
		c-12.545,0-22.725,10.18-22.725,22.725c0,12.546,10.18,22.726,22.725,22.726c12.546,0,22.726-10.18,22.726-22.726
		C150.726,115.455,140.546,105.275,128,105.275z"/>
    </mask>
</defs>

<g id="rec">
	<rect id="bg" mask="url(#mask)" fill="#FFFFFF" width="256" height="256"/>
</g>

</svg>
