<?xml version="1.0" encoding="utf-8"?>
<!-- Generator: Adobe Illustrator 16.0.0, SVG Export Plug-In . SVG Version: 6.00 Build 0)  -->
<!DOCTYPE svg PUBLIC "-//W3C//DTD SVG 1.1//EN" "http://www.w3.org/Graphics/SVG/1.1/DTD/svg11.dtd">
<svg version="1.1" xmlns="http://www.w3.org/2000/svg" 
	xmlns:xlink="http://www.w3.org/1999/xlink" 
	x="0px" y="0px" 
	width="350px" height="234px" 
	viewBox="0 0 350 234" 
	enable-background="new 0 0 350 234" 
	xml:space="preserve">

	<defs>
		<style>
			#bg{
				-webkit-filter: drop-shadow( 3px 3px 5px rgba(0, 0, 0, 70.2%) );
				filter: drop-shadow( 3px 3px 5px rgba(0, 0, 0, 70.2%) );
			}
			#scroll{
				animation: vanish 6s ease-out infinite;
			}

			#click{
				opacity: 0;
				animation: vanish 6s ease-out 2s infinite;
			}

			#abajo{
				opacity: 0;
				animation: vanish 6s ease-out 4s infinite;
			}

			@keyframes vanish{
				0%{
					opacity: 0.8;
				}
				1%{
					opacity: 1;
				}
				40%{
					opacity: 0;
				}
				100%{
					opacity: 0;
				}
			}
			
		</style>
	</defs>
	<g id="bg">
		<path fill="#FF5A3C" d="M185.716,174.5c-5.916,3.826-15.511,3.826-21.43,0L25,102.305v42.918c0,3.143,2.197,5.95,5.645,7.828
			l140.329,72.869c2.224,1.439,5.83,1.439,8.055,0l140.313-72.862c3.458-1.878,5.658-4.688,5.658-7.835v-42.919L185.716,174.5z"/>
		<g>
			<path fill="#FF5A3C" d="M308.173,7H41.828C32.75,7,25,15.75,25,24.231v62.254c0,3.143,2.197,6.951,5.645,8.829l140.329,72.87
				c2.224,1.439,5.83,1.439,8.055,0l140.313-72.863C322.8,93.443,325,89.632,325,86.485V22.231C325,13.75,317.5,7,308.173,7z"/>
		</g>
	</g>
	<g id="scroll">
		<g>
			<path fill="#F1F1F2" d="M106.628,44.163c-7.805,0-11.708,2.94-11.708,8.82c0,3.278,0.898,5.53,2.693,6.752
				c1.795,1.223,5.437,2.446,10.927,3.668c5.489,1.223,9.379,2.81,11.669,4.761c2.289,1.951,3.435,5.165,3.435,9.639
				c0,11.083-5.75,16.625-17.25,16.625c-3.799,0-8.56-0.443-14.283-1.327l-2.81-0.39l0.625-4.996
				c7.076,0.937,12.461,1.405,16.157,1.405c7.7,0,11.552-3.616,11.552-10.85c0-2.914-0.846-5.007-2.537-6.283
				c-1.691-1.274-4.853-2.354-9.483-3.239c-6.088-1.3-10.408-2.978-12.957-5.034c-2.55-2.055-3.825-5.502-3.825-10.342
				c0-9.679,5.801-14.518,17.406-14.518c3.798,0,8.352,0.391,13.659,1.171l2.654,0.39l-0.546,5.074
				C114.771,44.606,109.645,44.163,106.628,44.163z"/>
			<path fill="#F1F1F2" d="M147.605,53.92c1.717,0,4.63,0.312,8.742,0.937l1.873,0.234l-0.234,4.761
				c-4.164-0.468-7.233-0.702-9.21-0.702c-4.423,0-7.428,1.054-9.015,3.161c-1.588,2.107-2.38,6.01-2.38,11.708
				c0,5.698,0.742,9.667,2.225,11.903c1.483,2.238,4.566,3.356,9.249,3.356l9.21-0.702l0.234,4.839
				c-4.839,0.728-8.457,1.093-10.849,1.093c-6.088,0-10.291-1.562-12.605-4.684c-2.316-3.122-3.474-8.391-3.474-15.806
				c0-7.415,1.249-12.618,3.747-15.61C137.614,55.416,141.776,53.92,147.605,53.92z"/>
			<path fill="#F1F1F2" d="M167.039,93.727V54.7h5.776v5.308c4.527-3.122,9.289-5.177,14.284-6.166v5.932
				c-2.186,0.417-4.462,1.067-6.829,1.951c-2.369,0.885-4.176,1.666-5.425,2.341l-1.951,1.015v28.646H167.039z"/>
			<path fill="#F1F1F2" d="M191.548,74.135c0-7.128,1.274-12.28,3.824-15.454c2.549-3.173,6.855-4.761,12.918-4.761
				c6.062,0,10.354,1.588,12.878,4.761c2.523,3.174,3.786,8.326,3.786,15.454c0,7.13-1.198,12.307-3.591,15.533
				c-2.394,3.227-6.765,4.839-13.112,4.839c-6.349,0-10.72-1.612-13.112-4.839C192.744,86.442,191.548,81.265,191.548,74.135z
				M197.558,74.018c0,5.698,0.688,9.692,2.068,11.981c1.378,2.29,4.267,3.434,8.664,3.434c4.396,0,7.271-1.132,8.624-3.395
				c1.354-2.264,2.029-6.256,2.029-11.981c0-5.723-0.754-9.665-2.263-11.825c-1.51-2.159-4.307-3.239-8.391-3.239
				c-4.085,0-6.896,1.081-8.43,3.239C198.324,64.392,197.558,68.32,197.558,74.018z"/>
			<path fill="#F1F1F2" d="M234.944,93.727V37.685h5.854v56.042H234.944z"/>
			<path fill="#F1F1F2" d="M252.974,93.727V37.685h5.854v56.042H252.974z"/>
		</g>
	</g>
	<g id="click">
		<g>
			<path fill="#F1F1F2" d="M139.761,92.868c-5.36,1.093-10.173,1.639-14.439,1.639c-4.268,0-7.715-0.585-10.342-1.756
				c-2.628-1.171-4.657-2.992-6.088-5.464c-1.432-2.471-2.419-5.308-2.966-8.508c-0.546-3.2-0.82-7.193-0.82-11.981
				c0-4.787,0.273-8.807,0.82-12.059c0.546-3.251,1.534-6.127,2.966-8.625c1.431-2.498,3.446-4.319,6.049-5.464
				c2.601-1.144,5.983-1.717,10.146-1.717c4.163,0,9.054,0.573,14.674,1.717l-0.234,5.073c-5.256-0.937-9.939-1.405-14.049-1.405
				c-5.725,0-9.51,1.705-11.357,5.112c-1.848,3.409-2.771,9.224-2.771,17.445c0,4.111,0.168,7.415,0.507,9.913
				c0.338,2.498,1.001,4.749,1.991,6.751c0.988,2.004,2.432,3.435,4.332,4.293c1.899,0.859,4.683,1.288,8.352,1.288
				c3.669,0,8-0.468,12.996-1.405L139.761,92.868z"/>
			<path fill="#F1F1F2" d="M149.048,93.727V37.685h5.854v56.042H149.048z"/>
			<path fill="#F1F1F2" d="M166.609,45.88V39.09h5.854v6.791H166.609z M166.609,93.727V54.7h5.854v39.026H166.609z"/>
			<path fill="#F1F1F2" d="M198.299,53.92c1.717,0,4.63,0.312,8.741,0.937l1.873,0.234l-0.233,4.761
				c-4.164-0.468-7.234-0.702-9.211-0.702c-4.424,0-7.428,1.054-9.016,3.161s-2.38,6.01-2.38,11.708
				c0,5.698,0.741,9.667,2.225,11.903c1.483,2.238,4.565,3.356,9.249,3.356l9.211-0.702l0.233,4.839
				c-4.839,0.728-8.456,1.093-10.849,1.093c-6.089,0-10.291-1.562-12.605-4.684c-2.316-3.122-3.475-8.391-3.475-15.806
				c0-7.415,1.25-12.618,3.747-15.61C188.308,55.416,192.47,53.92,198.299,53.92z"/>
			<path fill="#F1F1F2" d="M223.586,93.727h-5.854V37.685h5.854v33.094l6.089-0.313L240.836,54.7h6.635l-12.723,17.952l13.27,21.074
				h-6.635l-11.631-18.108l-6.166,0.234V93.727z"/>
		</g>
	</g>
	<g id="abajo">
		<g>
			<path fill="#F1F1F2" d="M129.575,25.464v-3.011h21.818v3.011h-9.207v27.185h-3.316V25.464H129.575z"/>
			<path fill="#F1F1F2" d="M165.967,49.943l1.265-0.131l0.087,2.575c-3.316,0.465-6.152,0.698-8.509,0.698
				c-3.142,0-5.367-0.909-6.676-2.728c-1.309-1.817-1.964-4.647-1.964-8.487c0-7.651,3.04-11.477,9.12-11.477
				c2.938,0,5.134,0.822,6.589,2.465c1.455,1.644,2.182,4.226,2.182,7.746l-0.174,2.487h-14.4c0,2.415,0.437,4.204,1.309,5.367
				c0.873,1.164,2.393,1.745,4.56,1.745C161.523,50.205,163.727,50.118,165.967,49.943z M164.789,40.475
				c0-2.676-0.43-4.567-1.287-5.673c-0.858-1.105-2.255-1.658-4.189-1.658c-1.935,0-3.39,0.583-4.364,1.746
				c-0.975,1.164-1.477,3.026-1.505,5.585H164.789z"/>
			<path fill="#F1F1F2" d="M181.326,30.395c0.961,0,2.59,0.175,4.887,0.524l1.049,0.131l-0.131,2.662
				c-2.328-0.262-4.045-0.393-5.15-0.393c-2.473,0-4.152,0.589-5.039,1.767c-0.888,1.178-1.331,3.36-1.331,6.545
				s0.415,5.404,1.243,6.654c0.83,1.251,2.553,1.876,5.172,1.876l5.148-0.393l0.131,2.706c-2.705,0.407-4.729,0.611-6.064,0.611
				c-3.404,0-5.754-0.873-7.048-2.618c-1.294-1.746-1.941-4.691-1.941-8.836s0.698-7.054,2.094-8.727
				C175.741,31.231,178.068,30.395,181.326,30.395z"/>
			<path fill="#F1F1F2" d="M192.453,52.649V21.318h3.273v31.331H192.453z"/>
			<path fill="#F1F1F2" d="M217.674,37.42v11.171c0.088,1.077,0.931,1.717,2.531,1.92l-0.131,2.575c-2.299,0-4.029-0.582-5.192-1.746
				c-2.618,1.164-5.236,1.746-7.854,1.746c-2.008,0-3.535-0.567-4.582-1.702c-1.047-1.134-1.571-2.763-1.571-4.887
				c0-2.123,0.538-3.687,1.615-4.69c1.075-1.004,2.763-1.622,5.062-1.855l6.851-0.654V37.42c0-1.483-0.32-2.545-0.96-3.185
				c-0.641-0.64-1.513-0.96-2.618-0.96c-2.328,0-4.742,0.146-7.243,0.437l-1.354,0.131l-0.131-2.487c3.2-0.639,6.036-0.96,8.51-0.96
				c2.472,0,4.269,0.567,5.389,1.702C217.113,33.231,217.674,35.006,217.674,37.42z M204.234,46.322c0,2.677,1.105,4.015,3.316,4.015
				c1.978,0,3.927-0.334,5.847-1.004l1.004-0.349v-7.2l-6.458,0.611c-1.31,0.117-2.255,0.495-2.836,1.134
				C204.524,44.169,204.234,45.1,204.234,46.322z"/>
			<path fill="#F1F1F2" d="M102.256,104.649l11.905-43.358h10.526l11.905,43.358h-4.762l-3.133-11.153H110.15l-3.133,11.153H102.256z
				M117.794,65.426l-6.579,23.747h16.416l-6.579-23.747H117.794z"/>
			<path fill="#F1F1F2" d="M156.453,72.694c4.219,0,7.174,1.201,8.866,3.603c1.692,2.402,2.538,6.61,2.538,12.625
				c0,6.015-1.055,10.244-3.164,12.688c-2.11,2.444-5.984,3.666-11.623,3.666c-1.754,0-4.658-0.167-8.709-0.501l-1.754-0.188V59.662
				h4.637v15.226C150.417,73.425,153.487,72.694,156.453,72.694z M153.007,101.078c4.093,0,6.798-0.929,8.114-2.789
				c1.316-1.858,1.974-5.001,1.974-9.43c0-4.427-0.523-7.528-1.566-9.304c-1.044-1.775-2.904-2.663-5.577-2.663
				c-2.423,0-4.909,0.46-7.456,1.378l-1.253,0.438v22.055C149.958,100.974,151.879,101.078,153.007,101.078z"/>
			<path fill="#F1F1F2" d="M197.68,82.782v16.04c0.125,1.546,1.338,2.465,3.635,2.757l-0.188,3.697c-3.301,0-5.787-0.835-7.457-2.506
				c-3.76,1.671-7.518,2.506-11.277,2.506c-2.883,0-5.076-0.814-6.58-2.443c-1.503-1.629-2.255-3.968-2.255-7.018
				c0-3.049,0.772-5.294,2.318-6.736c1.544-1.441,3.968-2.328,7.269-2.663l9.836-0.94v-2.694c0-2.13-0.459-3.655-1.377-4.574
				c-0.92-0.918-2.174-1.378-3.76-1.378c-3.344,0-6.809,0.209-10.402,0.626l-1.941,0.188l-0.188-3.571
				c4.594-0.918,8.667-1.378,12.217-1.378s6.131,0.814,7.738,2.443S197.68,79.315,197.68,82.782z M178.383,95.564
				c0,3.843,1.586,5.764,4.762,5.764c2.84,0,5.639-0.479,8.395-1.441l1.441-0.501V89.047l-9.273,0.877
				c-1.879,0.167-3.236,0.71-4.072,1.629C178.799,92.473,178.383,93.81,178.383,95.564z"/>
			<path fill="#F1F1F2" d="M207.016,103.834V73.321h4.637v30.576c0,3.843-0.689,6.725-2.068,8.646
				c-1.378,1.921-4.156,3.948-8.333,6.078l-1.88-3.634c3.258-1.88,5.347-3.478,6.266-4.793
				C206.556,108.878,207.016,106.758,207.016,103.834z M207.016,66.241V60.79h4.637v5.451H207.016z"/>
			<path fill="#F1F1F2" d="M219.296,88.922c0-5.723,1.023-9.858,3.07-12.406c2.046-2.547,5.503-3.822,10.369-3.822
				s8.313,1.274,10.339,3.822c2.025,2.548,3.039,6.684,3.039,12.406c0,5.723-0.962,9.879-2.883,12.468
				c-1.922,2.591-5.431,3.885-10.526,3.885c-5.097,0-8.605-1.294-10.526-3.885C220.256,98.801,219.296,94.646,219.296,88.922z
				M224.12,88.828c0,4.574,0.554,7.78,1.661,9.618c1.105,1.839,3.424,2.757,6.954,2.757c3.529,0,5.837-0.908,6.924-2.726
				c1.086-1.817,1.629-5.022,1.629-9.618c0-4.594-0.605-7.758-1.816-9.492c-1.212-1.733-3.457-2.601-6.736-2.601
				s-5.535,0.868-6.767,2.601C224.736,81.101,224.12,84.254,224.12,88.828z"/>
		</g>
	</g>
</svg>
