<?xml version="1.0" encoding="utf-8"?>

<!DOCTYPE svg PUBLIC "-//W3C//DTD SVG 1.1//EN" "http://www.w3.org/Graphics/SVG/1.1/DTD/svg11.dtd">
<svg version="1.1" xmlns="http://www.w3.org/2000/svg" 
	xmlns:xlink="http://www.w3.org/1999/xlink" 
	x="0px" y="0px" 
	viewBox="0 0 320 234" 
	enable-background="new 0 0 320 234" 
	xml:space="preserve">

<g id="bg">
	<path fill="#FF5A3C" d="M172.466,174.5c-5.916,3.826-15.511,3.826-21.43,0L11.75,102.305v42.918c0,3.143,2.197,5.95,5.645,7.828
		l140.329,72.869c2.224,1.439,5.83,1.439,8.055,0l140.313-72.862c3.458-1.878,5.658-4.688,5.658-7.835v-42.919L172.466,174.5z"/>
	<g>
		<path fill="#FF5A3C" d="M294.923,7H28.578C19.5,7,11.75,15.75,11.75,24.231v62.254c0,3.143,2.197,6.951,5.645,8.829l140.329,72.87
			c2.224,1.439,5.83,1.439,8.055,0l140.313-72.863c3.458-1.877,5.658-5.689,5.658-8.835V22.231C311.75,13.75,304.25,7,294.923,7z"/>
	</g>
</g>

<g id="scroll">
	<g>
		<path fill="#F1F1F2" d="M89.165,44.163c-7.805,0-11.708,2.94-11.708,8.82c0,3.278,0.898,5.53,2.693,6.752
			c1.795,1.223,5.437,2.446,10.927,3.668c5.489,1.223,9.379,2.81,11.669,4.761c2.289,1.951,3.435,5.165,3.435,9.639
			c0,11.083-5.75,16.625-17.25,16.625c-3.799,0-8.56-0.443-14.283-1.327l-2.81-0.39l0.625-4.996
			c7.076,0.937,12.461,1.405,16.157,1.405c7.7,0,11.552-3.616,11.552-10.85c0-2.914-0.846-5.007-2.537-6.283
			c-1.691-1.274-4.853-2.354-9.483-3.239c-6.088-1.3-10.408-2.978-12.957-5.034c-2.55-2.055-3.825-5.502-3.825-10.342
			c0-9.679,5.801-14.518,17.406-14.518c3.798,0,8.352,0.391,13.659,1.171l2.654,0.39l-0.546,5.074
			C97.308,44.606,92.182,44.163,89.165,44.163z"/>
		<path fill="#F1F1F2" d="M130.142,53.92c1.717,0,4.63,0.312,8.742,0.937l1.873,0.234l-0.234,4.761
			c-4.164-0.468-7.233-0.702-9.21-0.702c-4.423,0-7.428,1.054-9.015,3.161c-1.588,2.107-2.38,6.01-2.38,11.708
			c0,5.698,0.742,9.667,2.225,11.903c1.483,2.238,4.566,3.356,9.249,3.356l9.21-0.702l0.234,4.839
			c-4.839,0.728-8.457,1.093-10.849,1.093c-6.088,0-10.291-1.562-12.605-4.684c-2.316-3.122-3.474-8.391-3.474-15.806
			c0-7.415,1.249-12.618,3.747-15.61C120.151,55.416,124.313,53.92,130.142,53.92z"/>
		<path fill="#F1F1F2" d="M149.576,93.727V54.7h5.776v5.308c4.527-3.122,9.288-5.177,14.284-6.166v5.932
			c-2.186,0.417-4.463,1.067-6.83,1.951c-2.368,0.885-4.176,1.666-5.425,2.341l-1.951,1.015v28.646H149.576z"/>
		<path fill="#F1F1F2" d="M174.084,74.135c0-7.128,1.274-12.28,3.825-15.454c2.549-3.173,6.854-4.761,12.917-4.761
			c6.062,0,10.354,1.588,12.879,4.761c2.523,3.174,3.786,8.326,3.786,15.454c0,7.13-1.198,12.307-3.591,15.533
			c-2.395,3.227-6.765,4.839-13.113,4.839s-10.72-1.612-13.112-4.839C175.28,86.442,174.084,81.265,174.084,74.135z M180.095,74.018
			c0,5.698,0.688,9.692,2.068,11.981c1.378,2.29,4.266,3.434,8.663,3.434c4.396,0,7.271-1.132,8.625-3.395
			c1.353-2.264,2.029-6.256,2.029-11.981c0-5.723-0.755-9.665-2.264-11.825c-1.51-2.159-4.306-3.239-8.391-3.239
			s-6.896,1.081-8.43,3.239C180.861,64.392,180.095,68.32,180.095,74.018z"/>
		<path fill="#F1F1F2" d="M217.481,93.727V37.685h5.854v56.042H217.481z"/>
		<path fill="#F1F1F2" d="M235.511,93.727V37.685h5.854v56.042H235.511z"/>
	</g>
</g>
</svg>
