<?xml version="1.0" encoding="utf-8"?>

<!DOCTYPE svg PUBLIC "-//W3C//DTD SVG 1.1//EN" "http://www.w3.org/Graphics/SVG/1.1/DTD/svg11.dtd">
<svg version="1.1" xmlns="http://www.w3.org/2000/svg" xmlns:xlink="http://www.w3.org/1999/xlink" x="0px" y="0px" width="256px"
	 height="256px" viewBox="0 0 256 256" enable-background="new 0 0 256 256" xml:space="preserve">

<style>
.bg{
	fill: #FFFFFF;
}

.bg:hover{
	fill: #F00;
}
</style>

<defs>
    <mask id="mask">
		<circle fill="#FFFFFF" cx="128" cy="128" r="124.332"/>
        <path fill="#000000" d="M214.054,84.525c1.16,4.236,1.969,9.897,2.514,17.105c0.633,7.198,0.896,13.413,0.896,18.81l0.545,7.56
		c0,19.707-1.441,34.201-3.955,43.475c-2.25,8.104-7.472,13.326-15.576,15.576c-4.236,1.16-11.972,1.978-23.855,2.514
		c-11.699,0.633-22.415,0.896-32.312,0.896L128,191.006c-37.713,0-61.204-1.441-70.478-3.955c-8.1-2.25-13.321-7.472-15.571-15.576
		c-1.169-4.236-1.978-9.896-2.519-17.104c-0.633-7.199-0.901-13.414-0.901-18.811L37.991,128c0-19.707,1.441-34.201,3.96-43.475
		c2.25-8.104,7.471-13.326,15.571-15.576c4.232-1.16,11.972-1.978,23.852-2.514c11.704-0.633,22.414-0.896,32.316-0.896L128,64.994
		c37.709,0,61.204,1.441,70.478,3.955C206.582,71.199,211.804,76.421,214.054,84.525z"/>
    </mask>
</defs>

<g id="rec">
	<rect class="bg" mask="url(#mask)" fill="#FFFFFF" width="256" height="256"/>
</g>

<g id="play">
	<polyline fill="#FFFFFF" points="109.998,155.003 156.708,128 109.998,100.997 109.998,155.003 	"/>
</g>

</svg>
