<?xml version="1.0" encoding="utf-8"?>

<!DOCTYPE svg PUBLIC "-//W3C//DTD SVG 1.1//EN" "http://www.w3.org/Graphics/SVG/1.1/DTD/svg11.dtd">

    <svg version="1.1" xmlns="http://www.w3.org/2000/svg" 
        xmlns:xlink="http://www.w3.org/1999/xlink" 
        x="0px" y="0px" 
        viewBox="0 0 528 528" 
        enable-background="new 0 0 528 528" 
        xml:space="preserve">
            
        <defs>
            <style>
                :root{
                    --carbon: #333;
                }

                .nom{
                    opacity: 0;
                    animation: op 0.25s ease-in 0.15s normal forwards;
                }
    
                @keyframes op {
                    0%{
                        opacity: 0;
                    }
                    100%{
                        opacity: 1;
                    }
                }

                .planet{
                    opacity: 0;
                    animation: rot1 0.65s ease-out 0.75s normal forwards;
                    transform-origin: center;
                    transform: rotate(-74deg);
                }

                @keyframes rot1 {
                    100%{
                        opacity: 1;
                        transform: rotate(0);
                    }
                }

                .planet2{
                    opacity: 0;
                    animation: rot1 0.65s ease-out 0.75s normal forwards;
                    transform-origin: center;
                    transform: rotate(-44deg);
                }

                #orbit{
                    stroke-dasharray: 0 80 0 260 0 288 0 289 0 138 0 133;
                    stroke-dashoffset: 0;
                    animation: mov-1 0.65s ease-out 0.85s normal forwards,
                                mov-2 5s ease-in-out 2s infinite;
                }

                @keyframes mov-1 {
                    0%{
                        stroke-dasharray: 0 80 0 260 0 288 0 289 0 138 0 133;
                    }
                    100%{
                        stroke-dasharray: 0 80 174 86 174 114 235 54 103 35 97 36;
                    }
                } 
            
                @keyframes mov-2 {
                    0%{
                        stroke-width: 5.5;
                        stroke-dasharray: 0 80 1108 0;
                        stroke-dashoffset:0;

                    }
                    60%{
                        stroke-width: 1;
                        stroke-dasharray: 0 1188 0 0;
                        stroke-dashoffset:-1188;
                    }
                    61%{
                        stroke-width: 5.5;
                        stroke-dasharray: 0 80 0 1108;
                        stroke-dashoffset:0;
                    }
                    90%{
                        stroke-dasharray: 0 80 1108 0;
                        stroke-dashoffset:0;
                    }
                    100%{
                        stroke-dasharray: 0 80 1108 0;
                        stroke-dashoffset:0;
                    }
                }           
            
                .type{
                    stroke-dasharray: 0 70 0 0 0 200;
                    stroke-dashoffset: 0;
                    animation: gh 0.6s ease-in 0.8s normal forwards;
                }

                @keyframes gh{
                    0%{
                        stroke-dasharray: 0 65 0 0 0 200;
                    }
                    100%{
                        stroke-dasharray: 0 0 65 0 200 200;
                    }
                }
            
                .type2{
                    stroke-dasharray: 0 60 0 0 0 200;
                    stroke-dashoffset: 0;
                    animation: gh2 0.4s ease-in 1s normal forwards;
                }

                @keyframes gh2{
                    0%{
                        stroke-dasharray: 0 60 0 0 0 200;
                    }
                    100%{
                        stroke-dasharray: 0 0 60 0 200 200;
                    }
                }
            
                .type3{
                    stroke-dasharray: 0 150;
                    stroke-dashoffset: 0;
                    animation: gh3 0.45s ease-in 0.1s normal forwards;
                }
                @keyframes gh3{
                    0%{
                        stroke-dasharray: 0 150;
                    }
                    100%{
                        stroke-dasharray: 150 150;
                    }
                }
            
                .ret{
                    animation-delay: 0.3s;
                }
            
                .ret2{
                    animation-delay: 0.6s;
                }

                .desp{
                    stroke-dasharray: 0 0 65 0 200 200;
                    animation: desp 5s ease-out 3s normal infinite;
                }

                @keyframes desp{
                    0%{
                        stroke-width: 5.5;
                        stroke-dasharray: 0 0 65 0 200 200;
                    }
                    8%{
                        stroke-width: 0;
                        stroke-dasharray: 0 65 0 0 0 200;
                    }
                    11%{
                        stroke-width: 0;
                        opacity:0;
                        stroke-dasharray: 0 65 0 0 0 200;
                    }
                    12%{
                        stroke-width: 0;
                        opacity:1;
                        stroke-dasharray: 0 65 0 0 0 200;
                    }
                    20%{
                        stroke-width: 5.5;
                        opacity:1;
                        stroke-dasharray: 0 0 65 0 200 200;
                    }
                    100%{
                        stroke-dasharray: 0 0 65 0 200 200;
                    }
                }
                        
            </style>

            <script>
                setTimeout(()=>{
                const desp = document.getElementsByClassName("sel");
                    desp[0].classList.add('desp');
                    desp[1].classList.add('desp');
            },2000)
            </script>
        </defs>

        <defs>
            <mask id="mask">
                <rect fill="white" width="528" height="528"/>
                <circle id="p-rec03" fill="black" cx="264" cy="453" r="40"/>
			    <circle id="p-rec02" fill="black" cx="397.175" cy="129.515" r="25"/>
			    <circle id="p-rec01" fill="black" cx="264" cy="75" r="28.75"/>
                <rect x="34" y="221.518" fill="black" width="460" height="113"/>
            </mask>
        </defs>
                
        <g id="types">
            <g class="nom ret">
                <polygon fill="var(--carbon)" points="34.508,298.278 44.508,298.271 44.508,248.271 64.508,268.271 72.508,260.271 44.508,232.271 
                        34.508,238.271 	"/>
                <polygon fill="var(--carbon)" points="104.508,243.271 104.508,298.271 114.508,298.271 114.508,233.271 	"/>
                <polygon fill="var(--carbon)" points="194.508,242.265 194.508,232.265 140.508,232.265 134.508,236.265 134.508,294.265 
                        140.508,298.265 194.508,298.265 194.508,288.265 144.508,288.265 144.508,242.265 	"/>
                <path fill="var(--carbon)" d="M234.592,288.5l0.001-48.229h33.79l8.664-8.685c0,0-2.462-0.6-3.523-0.801
                        c-1.319-0.25-5.016-0.515-5.016-0.515h-37.915l-6,4l0.048,64.041l0.226,0.182L234.592,288.5z"/>
                <path fill="var(--carbon)" d="M244.508,300.271h22c0,0,14.646,0.937,25.792-10.21c5.604-5.604,10.208-14.164,10.208-24.771
                        c0-10.707-4.929-17.948-4.929-17.948l-7.394,7.394c0,0,2.322,4.432,2.322,10.535c0,8.187-3.936,14.399-7.123,17.586
                        c-8.042,8.041-17.792,7.458-17.792,7.458l-13.085-0.044L244.508,300.271z"/>
                <polygon fill="var(--carbon)" points="382.508,242.271 382.508,232.271 328.508,232.271 322.508,236.271 322.508,294.271 
                        328.508,298.271 382.508,298.271 382.508,288.271 332.508,288.271 332.508,242.271 	"/>
                <polygon fill="var(--carbon)" points="414.508,298.271 424.486,298.271 424.508,248.271 444.508,268.265 452.508,260.265 
                        424.508,232.265 414.508,238.265 	"/>
                <polygon fill="var(--carbon)" points="484.508,243.265 484.508,298.265 494.508,298.265 494.508,233.265 	"/>
            </g>
            <g class="nom ret2">
		<path fill="#272525" d="M37.697,324.729v-15.07h4.671l3.703,11.771l3.703-11.771h4.695v15.07h-2.71v-12.364h-0.363l-3.92,11.748
			h-2.807l-3.92-11.748h-0.363v12.364H37.697z"/>
		<path fill="#272525" d="M58.267,324.729v-15.07h10.455v2.135h-7.768v4.268h6.316v2.112h-6.316v4.399h7.768v2.156H58.267z"/>
		<path fill="#272525" d="M71.649,324.729v-15.07h4.671l3.703,11.771l3.703-11.771h4.695v15.07h-2.71v-12.364h-0.363l-3.92,11.748
			h-2.807l-3.92-11.748h-0.363v12.364H71.649z"/>
		<path fill="#272525" d="M103.484,323.122c-0.992,1.232-2.739,1.849-5.239,1.849c-2.501,0-4.251-0.619-5.251-1.859
			c-1-1.239-1.5-3.186-1.5-5.841c0-2.654,0.504-4.627,1.512-5.918c1.008-1.29,2.755-1.936,5.239-1.936s4.227,0.642,5.228,1.925
			c1,1.283,1.5,3.26,1.5,5.929C104.972,319.94,104.476,321.891,103.484,323.122z M95.099,321.538
			c0.548,0.866,1.597,1.299,3.146,1.299s2.593-0.426,3.134-1.276s0.811-2.277,0.811-4.279s-0.278-3.457-0.835-4.367
			c-0.557-0.909-1.593-1.363-3.11-1.363s-2.557,0.454-3.122,1.363c-0.565,0.91-0.847,2.358-0.847,4.346
			S94.55,320.673,95.099,321.538z"/>
		<path fill="#272525" d="M110.78,319.36v5.368h-2.687v-15.07h6.292c3.743,0,5.615,1.599,5.615,4.796
			c0,2.142-0.904,3.594-2.71,4.356l2.734,5.918h-2.952l-2.396-5.368H110.78z M117.242,314.477c0-1.804-0.952-2.706-2.856-2.706
			h-3.605v5.478h3.654c0.968,0,1.678-0.253,2.129-0.759S117.242,315.313,117.242,314.477z"/>
		<path fill="#272525" d="M123.049,324.729v-15.07h2.687v15.07H123.049z"/>
		<path fill="#272525" d="M128.131,324.729l4.09-15.07h5.348l4.114,15.07h-2.71l-0.896-3.234h-6.365l-0.895,3.234H128.131z
			 M134.302,311.704l-2.057,7.635h5.3l-2.033-7.635H134.302z"/>
		<path fill="#272525" d="M155.114,324.729h-5.735v-15.07h5.735c2.549,0,4.292,0.587,5.228,1.761
			c0.936,1.173,1.403,3.014,1.403,5.521c0,1.276-0.093,2.357-0.278,3.245s-0.512,1.69-0.98,2.409
			C159.567,324.018,157.776,324.729,155.114,324.729z M158.962,316.94c0-1.818-0.25-3.131-0.75-3.938s-1.533-1.21-3.098-1.21h-3.049
			v10.779h3.049c1.598,0,2.662-0.535,3.195-1.605c0.258-0.543,0.431-1.122,0.52-1.738
			C158.917,318.612,158.962,317.85,158.962,316.94z"/>
		<path fill="#272525" d="M164.89,324.729v-15.07h2.687v15.07H164.89z"/>
		<path fill="#272525" d="M178.152,318.965v-2.156h4.719v7.656c-0.436,0.103-1.319,0.213-2.65,0.33
			c-1.331,0.117-2.295,0.176-2.892,0.176c-2.517,0-4.251-0.631-5.203-1.893c-0.952-1.261-1.428-3.237-1.428-5.929
			s0.488-4.653,1.464-5.885c0.976-1.232,2.666-1.848,5.07-1.848c1.419,0,3.017,0.146,4.792,0.439l0.847,0.154l-0.097,1.936
			c-1.952-0.234-3.703-0.352-5.251-0.352c-1.548,0-2.609,0.396-3.182,1.188s-0.859,2.259-0.859,4.4s0.27,3.619,0.811,4.433
			c0.541,0.814,1.633,1.222,3.279,1.222c1.177,0,2.057-0.066,2.638-0.198v-3.674H178.152z"/>
		<path fill="#272525" d="M186.234,324.729v-15.07h2.687v15.07H186.234z"/>
		<path fill="#272525" d="M191.147,311.837v-2.179h12.1v2.179h-4.67v12.892h-2.71v-12.892H191.147z"/>
		<path fill="#272525" d="M203.053,324.729l4.09-15.07h5.348l4.114,15.07h-2.71L213,321.494h-6.365l-0.895,3.234H203.053z
			 M209.224,311.704l-2.057,7.635h5.3l-2.033-7.635H209.224z"/>
		<path fill="#272525" d="M228.27,324.729h-9.293v-15.07h2.687v12.893h6.606V324.729z"/>
		<path fill="#272525" d="M241.531,324.729h-5.735v-15.07h5.735c2.549,0,4.292,0.587,5.228,1.761
			c0.936,1.173,1.403,3.014,1.403,5.521c0,1.276-0.093,2.357-0.278,3.245s-0.512,1.69-0.98,2.409
			C245.984,324.018,244.193,324.729,241.531,324.729z M245.379,316.94c0-1.818-0.25-3.131-0.75-3.938s-1.533-1.21-3.098-1.21h-3.049
			v10.779h3.049c1.598,0,2.662-0.535,3.195-1.605c0.258-0.543,0.431-1.122,0.52-1.738
			C245.334,318.612,245.379,317.85,245.379,316.94z"/>
		<path fill="#272525" d="M251.307,324.729v-15.07h10.455v2.135h-7.768v4.268h6.316v2.112h-6.316v4.399h7.768v2.156H251.307z"/>
		<path fill="#272525" d="M273.982,324.729h-9.292v-15.07h2.687v12.893h6.605V324.729z"/>
		<path fill="#272525" d="M281.508,324.729v-15.07h10.455v2.135h-7.768v4.268h6.315v2.112h-6.315v4.399h7.768v2.156H281.508z"/>
		<path fill="#272525" d="M299.755,311.551c-2.049,0-3.073,0.652-3.073,1.958c0,0.675,0.242,1.154,0.727,1.44
			c0.483,0.286,1.552,0.639,3.206,1.057c1.653,0.418,2.819,0.916,3.497,1.496c0.678,0.579,1.016,1.492,1.016,2.738
			c0,1.584-0.496,2.769-1.488,3.554c-0.992,0.784-2.344,1.177-4.053,1.177c-1.371,0-2.889-0.146-4.55-0.44l-0.871-0.153l0.267-1.958
			c2.178,0.264,3.839,0.396,4.984,0.396c2,0,3.001-0.807,3.001-2.42c0-0.631-0.226-1.097-0.678-1.397
			c-0.452-0.3-1.468-0.63-3.049-0.989s-2.759-0.854-3.533-1.485s-1.161-1.628-1.161-2.992c0-1.363,0.487-2.394,1.463-3.091
			c0.977-0.696,2.328-1.045,4.055-1.045c1.242,0,2.71,0.132,4.404,0.396l0.846,0.133l-0.217,1.979
			C302.287,311.668,300.69,311.551,299.755,311.551z"/>
		<path fill="#272525" d="M314.105,320.043h-3.388v4.686h-2.687v-15.07h6.074c3.76,0,5.639,1.688,5.639,5.061
			c0,1.73-0.472,3.051-1.416,3.96C317.385,319.588,315.977,320.043,314.105,320.043z M310.718,317.931h3.364
			c1.936,0,2.903-1.07,2.903-3.212c0-1.026-0.233-1.774-0.702-2.244c-0.468-0.47-1.201-0.704-2.201-0.704h-3.364V317.931z"/>
		<path fill="#272525" d="M320.324,324.729l4.09-15.07h5.349l4.114,15.07h-2.711l-0.895-3.234h-6.365l-0.895,3.234H320.324z
			 M326.496,311.704l-2.057,7.635h5.299l-2.032-7.635H326.496z"/>
		<path fill="#272525" d="M341.572,324.971c-2.42,0-4.062-0.608-4.924-1.826c-0.863-1.217-1.295-3.219-1.295-6.006
			c0-2.786,0.436-4.771,1.307-5.951s2.508-1.771,4.912-1.771c1.436,0,3.018,0.183,4.744,0.55l-0.098,1.979
			c-1.451-0.234-2.904-0.352-4.355-0.352c-1.452,0-2.437,0.393-2.953,1.177c-0.516,0.785-0.773,2.259-0.773,4.422
			c0,2.164,0.25,3.638,0.75,4.422c0.5,0.785,1.476,1.178,2.928,1.178s2.92-0.11,4.404-0.33l0.072,2.023
			C344.63,324.809,343.057,324.971,341.572,324.971z"/>
		<path fill="#272525" d="M349.172,324.729v-15.07h2.686v15.07H349.172z"/>
		<path fill="#272525" d="M366.946,323.122c-0.992,1.232-2.739,1.849-5.239,1.849c-2.501,0-4.251-0.619-5.252-1.859
			c-1-1.239-1.5-3.186-1.5-5.841c0-2.654,0.504-4.627,1.513-5.918c1.009-1.29,2.755-1.936,5.239-1.936s4.227,0.642,5.228,1.925
			c1,1.283,1.5,3.26,1.5,5.929C368.435,319.94,367.938,321.891,366.946,323.122z M358.561,321.538
			c0.549,0.866,1.598,1.299,3.146,1.299s2.594-0.426,3.134-1.276s0.812-2.277,0.812-4.279s-0.279-3.457-0.836-4.367
			c-0.557-0.909-1.593-1.363-3.109-1.363s-2.557,0.454-3.121,1.363c-0.565,0.91-0.848,2.358-0.848,4.346
			S358.013,320.673,358.561,321.538z"/>
		<path fill="#272525" d="M376.879,324.729v-15.07h10.455v2.135h-7.768v4.268h6.315v2.112h-6.315v4.399h7.768v2.156H376.879z"/>
		<path fill="#272525" d="M390.262,324.729v-15.07h4.695l5.033,12.914h0.363v-12.914h2.687v15.07h-4.599l-5.154-12.936h-0.338
			v12.936H390.262z"/>
		<path fill="#272525" d="M412.187,324.729v-15.07h4.671l3.703,11.771l3.702-11.771h4.694v15.07h-2.71v-12.364h-0.363l-3.921,11.748
			h-2.807l-3.92-11.748h-0.363v12.364H412.187z"/>
		<path fill="#272525" d="M432.756,324.729v-15.07h10.455v2.135h-7.768v4.268h6.315v2.112h-6.315v4.399h7.768v2.156H432.756z
			 M434.813,306.337l5.712-2.267l0.846,2.134l-5.88,1.805L434.813,306.337z"/>
		<path fill="#272525" d="M447.567,309.658l3.558,5.94l3.605-5.94h2.831l-4.912,7.656l4.912,7.414h-3.001l-3.557-5.676l-3.63,5.676
			h-2.832l4.937-7.282l-4.937-7.788H447.567z"/>
		<path fill="#272525" d="M459.788,324.729v-15.07h2.686v15.07H459.788z"/>
		<path fill="#272525" d="M471.863,324.971c-2.42,0-4.062-0.608-4.925-1.826c-0.863-1.217-1.294-3.219-1.294-6.006
			c0-2.786,0.436-4.771,1.307-5.951s2.508-1.771,4.912-1.771c1.436,0,3.017,0.183,4.743,0.55l-0.097,1.979
			c-1.452-0.234-2.904-0.352-4.355-0.352c-1.452,0-2.437,0.393-2.953,1.177c-0.517,0.785-0.774,2.259-0.774,4.422
			c0,2.164,0.25,3.638,0.751,4.422c0.499,0.785,1.476,1.178,2.928,1.178s2.92-0.11,4.404-0.33l0.073,2.023
			C474.921,324.809,473.348,324.971,471.863,324.971z"/>
		<path fill="#272525" d="M490.533,323.122c-0.992,1.232-2.738,1.849-5.239,1.849s-4.251-0.619-5.251-1.859
			c-1.001-1.239-1.501-3.186-1.501-5.841c0-2.654,0.504-4.627,1.513-5.918c1.008-1.29,2.755-1.936,5.239-1.936
			s4.227,0.642,5.228,1.925c1,1.283,1.5,3.26,1.5,5.929C492.021,319.94,491.525,321.891,490.533,323.122z M482.148,321.538
			c0.548,0.866,1.597,1.299,3.146,1.299s2.594-0.426,3.134-1.276c0.541-0.851,0.811-2.277,0.811-4.279s-0.278-3.457-0.835-4.367
			c-0.557-0.909-1.593-1.363-3.109-1.363s-2.558,0.454-3.122,1.363c-0.564,0.91-0.847,2.358-0.847,4.346
			S481.6,320.673,482.148,321.538z"/>
	</g>
                    
            <g id="lines">	
                <line fill="none" class="type sel" stroke="var(--carbon)" stroke-width="5.5" stroke-miterlimit="10" x1="52.122" y1="292.667" x2="246.861" y2="97.874"/>
                <line fill="none" class="type2 sel" stroke="var(--carbon)" stroke-width="5.5" stroke-miterlimit="10" x1="226.6" y1="300.291" x2="379.324" y2="147.524"/>
                <line fill="none" class="type3 ret2" stroke="var(--carbon)" stroke-width="5.5" stroke-miterlimit="10" x1="432.505" y1="292.289" x2="508.492" y2="216.28"/>
                <line fill="none" class="type3" stroke="var(--carbon)" stroke-width="5.5" stroke-miterlimit="10" x1="144.299" y1="265.25" x2="214.508" y2="265.25"/>
                <line fill="none" class="type3 ret" stroke="var(--carbon)" stroke-width="5.5" stroke-miterlimit="10" x1="325.796" y1="265.25" x2="396.005" y2="265.25"/>
            </g>
        </g>
            
        <g>
            <circle id="orbit" mask="url(#mask)" fill="none" stroke="var(--carbon)" stroke-width="5" stroke-miterlimit="10" cx="264" cy="264" r="189"/>
        </g>
            
        <g id="planeta01">
            <circle class="planet" fill="none" stroke="var(--carbon)" stroke-width="2" stroke-miterlimit="10" cx="264" cy="75" r="17"/>
        </g>
            
        <g id="planeta02">
            <circle class="planet2" fill="none" stroke="var(--carbon)" stroke-width="2" stroke-miterlimit="10" cx="397.175" cy="129.515" r="11"/>
        </g>
            
        <g id="Planeta03">
            <circle class="planet" fill="none" stroke="var(--carbon)" stroke-width="2" stroke-miterlimit="10" cx="264.509" cy="455.351" r="29"/>
        </g>
            
    </svg>