<?xml version="1.0" encoding="utf-8"?>
<!-- Generator: Adobe Illustrator 16.0.0, SVG Export Plug-In . SVG Version: 6.00 Build 0)  -->
<!DOCTYPE svg PUBLIC "-//W3C//DTD SVG 1.1//EN" "http://www.w3.org/Graphics/SVG/1.1/DTD/svg11.dtd">
<svg version="1.1" xmlns="http://www.w3.org/2000/svg" xmlns:xlink="http://www.w3.org/1999/xlink" x="0px" y="0px" width="256px"
	 height="256px" viewBox="0 0 256 256" enable-background="new 0 0 256 256" xml:space="preserve">

<style>

#bg{
	fill: #FFFFFF;
}

#bg:hover{
	fill: #00BFFF;
}

</style>

<defs>
    <mask id="mask">
		<circle fill="#FFFFFF" cx="128" cy="128" r="124.332"/>
        <path fill="#000000" d="M203.749,80.928c-5.58,2.536-11.591,4.201-17.814,4.997c6.371-3.836,11.3-9.922,13.614-17.235
		c-6.013,3.621-12.674,6.156-19.696,7.603c-5.722-6.227-13.763-9.848-22.885-9.848c-17.016,0-30.923,13.903-30.923,31.067
		c0,2.461,0.291,4.852,0.796,7.097c-25.781-1.305-48.737-13.688-64.016-32.443c-2.681,4.562-4.201,9.922-4.201,15.569
		c0,10.792,5.432,20.35,13.833,25.781c-5.141,0-9.922-1.45-14.123-3.621c0,0,0,0,0,0.22c0,15.06,10.718,27.659,24.912,30.487
		c-2.606,0.722-5.357,1.089-8.183,1.089c-1.955,0-3.911-0.227-5.792-0.579c3.911,12.234,15.279,21.357,28.967,21.576
		c-10.573,8.401-23.971,13.324-38.6,13.324c-2.461,0-4.925-0.148-7.386-0.432c13.758,8.833,30.126,13.974,47.651,13.974
		c57.065,0,88.422-47.361,88.422-88.421c0-1.375,0-2.681-0.071-4.056C194.336,92.732,199.549,87.229,203.749,80.928z"/>
    </mask>
</defs>

<g id="rec">
	<rect id="bg" mask="url(#mask)" fill="#FFFFFF" width="256" height="256"/>
</g>

</svg>
